<svg xmlns="http://www.w3.org/2000/svg" width="1024.1" height="1242.2" viewBox="0 0 1502 1822"><defs><style>.cls-1{fill:#fff;fill-rule:evenodd}</style></defs><path id="_1" data-name="1" class="cls-1" d="M382.8 1027.8l22.1-53.7-78.7-32.5L505 509l-49.4-20.5-134.7 62.1 19.8 49.5 68.6-25.7-141.8 342.8-77.1-31.9-22.2 53.6z"/><path id="trash-dude" class="cls-1" d="M990.4 1822l105-999 400.2 34 2.8 965-210-624.4zm105-1038.7l405.8-17L1277 349l-896.8-42.6 593.2 195.8zM.8 865.6l130.6 942.2h485.3l105-947.9-54-5.7-96.4 905.4H176.8L51.9 859.9z"/><path id="head" class="cls-1" d="M1075.5 0A147.6 147.6 0 11928 147.5 147.6 147.6 0 011075.5 0z"/></svg>